<svg width="32" height="32" viewBox="0 0 32 32" fill="none" xmlns="http://www.w3.org/2000/svg">
<rect width="32" height="32" rx="10" fill="#D2D2D2"/>
<path fill-rule="evenodd" clip-rule="evenodd" d="M14.48 6.40002C13.3754 6.40002 12.48 7.29545 12.48 8.40002V12.48H8.39996C7.29539 12.48 6.39996 13.3754 6.39996 14.48V17.52C6.39996 18.6245 7.29539 19.52 8.39996 19.52H12.48V23.6C12.48 24.7046 13.3754 25.6 14.48 25.6H17.52C18.6245 25.6 19.52 24.7046 19.52 23.6V19.52H23.6C24.7045 19.52 25.6 18.6245 25.6 17.52V14.48C25.6 13.3754 24.7045 12.48 23.6 12.48H19.52V8.40002C19.52 7.29545 18.6245 6.40002 17.52 6.40002H14.48Z" fill="#F14E4E"/>
</svg>
